<?xml version="1.0" standalone="no"?>
<!DOCTYPE svg PUBLIC "-//W3C//DTD SVG 20010904//EN"
 "http://www.w3.org/TR/2001/REC-SVG-20010904/DTD/svg10.dtd">
<svg version="1.0" xmlns="http://www.w3.org/2000/svg"
 width="664.000000pt" height="664.000000pt" viewBox="0 0 664.000000 664.000000"
 preserveAspectRatio="xMidYMid meet">
<metadata>
Created by potrace 1.11, written by Peter Selinger 2001-2013
</metadata>
<g transform="translate(0.000000,664.000000) scale(0.100000,-0.100000)"
fill="#000000" stroke="none">
<path d="M3780 6624 c-30 -7 -68 -16 -84 -19 -16 -3 -33 -8 -38 -11 -4 -3 -17
-7 -28 -10 -46 -10 -57 -12 -100 -24 -25 -6 -64 -18 -87 -25 -23 -8 -53 -16
-67 -19 -14 -3 -30 -7 -36 -11 -5 -3 -19 -8 -31 -10 -17 -3 -162 -48 -227 -70
-7 -3 -16 -5 -20 -6 -4 0 -15 -5 -25 -11 -10 -5 -26 -11 -35 -13 -19 -4 -255
-89 -287 -104 -20 -9 -56 -23 -65 -26 -3 0 -20 -9 -37 -18 -18 -10 -36 -18
-40 -18 -28 -4 -297 -129 -305 -142 -4 -7 -8 -9 -8 -5 0 8 -188 -88 -252 -129
-21 -12 -39 -23 -42 -23 -2 0 -33 -18 -67 -40 -35 -22 -72 -43 -81 -46 -10 -4
-18 -10 -18 -15 0 -5 -4 -9 -10 -9 -5 0 -50 -28 -100 -62 -50 -35 -98 -67
-107 -73 -23 -14 -53 -37 -75 -57 -10 -10 -21 -18 -24 -18 -4 0 -21 -12 -38
-27 -18 -16 -48 -40 -67 -55 -182 -142 -414 -378 -564 -572 -16 -22 -40 -51
-52 -67 -13 -15 -23 -30 -23 -34 0 -3 -6 -13 -13 -20 -22 -25 -31 -39 -83
-120 -62 -95 -171 -285 -175 -303 -1 -4 -21 -47 -44 -97 -23 -49 -64 -148 -90
-220 -53 -144 -57 -156 -61 -170 -1 -5 -12 -45 -24 -87 -11 -43 -23 -85 -25
-95 -3 -10 -9 -38 -16 -63 -6 -25 -14 -65 -19 -90 -5 -25 -11 -56 -13 -70 -12
-57 -31 -201 -44 -335 -15 -156 -8 -661 11 -775 3 -14 7 -47 10 -75 5 -49 13
-106 22 -155 2 -14 7 -41 10 -60 18 -114 53 -274 91 -410 19 -69 36 -132 38
-140 10 -41 79 -230 84 -230 3 0 32 55 65 121 73 152 185 347 292 512 46 70
88 133 94 140 6 6 32 41 58 77 141 195 350 429 533 595 110 100 136 122 231
198 53 42 102 77 107 77 6 0 11 3 11 8 0 4 30 27 68 52 37 25 72 48 77 53 36
27 207 129 283 169 30 15 60 32 68 39 8 6 14 8 14 3 0 -5 4 -4 8 1 24 33 508
231 638 260 11 2 44 11 74 20 30 9 65 18 77 21 12 2 34 9 48 14 14 5 25 7 25
5 0 -2 12 0 26 5 14 6 40 12 57 14 18 3 43 7 57 10 53 12 147 28 180 32 19 1
55 5 80 8 82 10 174 18 260 21 47 2 90 4 96 4 7 1 10 21 8 54 -1 28 -5 144 -8
257 -4 113 -8 270 -11 350 -2 80 -7 235 -10 345 -3 110 -8 268 -10 350 -3 83
-8 229 -10 325 -8 259 -16 537 -29 940 -2 63 -4 139 -5 168 0 28 -4 52 -8 51
-5 0 -33 -7 -63 -15z"/>
<path d="M4264 6052 c2 -4 7 -152 11 -327 9 -513 14 -744 19 -1000 3 -132 9
-377 12 -545 9 -429 9 -434 23 -426 40 25 464 26 616 2 17 -3 48 -7 70 -10 54
-8 97 -15 180 -32 39 -8 81 -17 95 -19 14 -3 36 -8 50 -12 14 -4 32 -8 40 -9
24 -4 173 -45 195 -54 11 -4 76 -26 145 -48 184 -61 254 -85 260 -91 3 -4 25
-13 50 -22 25 -9 82 -33 128 -53 78 -33 89 -34 82 -1 -1 5 -4 32 -6 60 -3 27
-7 61 -10 75 -3 14 -7 43 -9 65 -3 22 -12 72 -20 110 -9 39 -18 81 -21 95 -2
14 -18 70 -35 125 -16 55 -31 105 -32 110 -13 45 -41 122 -48 130 -5 5 -9 16
-9 24 0 26 -130 296 -197 409 -24 41 -43 76 -43 78 0 3 -5 10 -10 17 -6 7 -42
59 -81 115 -38 57 -74 109 -80 115 -5 7 -30 39 -57 72 -99 126 -158 191 -298
330 -67 66 -135 131 -151 145 -140 123 -382 310 -400 310 -6 0 -13 4 -15 8 -3
8 -155 112 -164 112 -2 0 -28 16 -59 35 -112 72 -249 135 -231 107z"/>
<path d="M3729 3456 c-2 -2 -40 -7 -84 -10 -44 -4 -91 -8 -105 -10 -14 -3 -45
-7 -70 -10 -25 -3 -56 -8 -70 -11 -14 -3 -38 -7 -55 -10 -16 -2 -40 -6 -51 -9
-12 -2 -37 -7 -55 -10 -19 -3 -92 -22 -164 -41 -137 -37 -141 -39 -165 -47
-48 -18 -176 -63 -180 -64 -5 -1 -29 -10 -113 -46 -68 -28 -338 -166 -357
-182 -8 -7 -49 -32 -90 -56 -41 -25 -77 -47 -80 -50 -3 -4 -27 -21 -55 -40
-209 -140 -552 -457 -707 -654 -13 -16 -47 -58 -76 -94 -29 -36 -74 -95 -100
-131 -26 -36 -50 -70 -54 -76 -4 -5 -32 -46 -60 -90 -83 -127 -117 -184 -207
-350 -9 -16 -19 -32 -22 -35 -5 -4 -20 -36 -24 -50 0 -3 -12 -25 -25 -50 -27
-50 -46 -92 -114 -255 -25 -60 -46 -115 -46 -122 0 -7 10 -18 23 -24 12 -7 24
-15 27 -18 3 -3 14 -11 25 -18 73 -43 282 -174 292 -183 7 -5 15 -10 19 -10 3
0 32 -15 63 -34 178 -107 561 -294 796 -386 50 -20 114 -43 155 -56 25 -8 54
-19 65 -24 11 -6 29 -11 40 -13 11 -1 25 -5 30 -9 10 -5 150 -46 188 -53 9 -2
21 -6 25 -9 5 -3 24 -8 43 -11 19 -3 42 -8 51 -11 9 -3 25 -7 35 -9 10 -2 38
-8 63 -14 44 -10 134 -25 215 -36 22 -3 54 -7 70 -10 97 -14 194 -19 385 -20
265 0 327 5 575 50 11 2 58 13 105 24 47 12 94 23 104 26 23 5 86 25 106 32 8
3 20 7 25 8 45 11 234 89 343 141 208 100 430 241 604 383 141 115 379 342
473 452 115 133 148 174 206 249 35 47 71 95 79 106 8 12 45 65 83 119 37 53
67 101 67 105 0 5 4 10 8 12 4 2 26 32 47 68 21 36 44 68 49 72 6 4 7 8 2 8
-5 0 -2 8 6 18 9 9 24 33 33 52 10 19 21 37 24 40 16 13 219 415 260 515 18
44 42 99 52 122 24 52 69 176 66 180 -9 9 -415 194 -457 208 -3 1 -14 5 -25
10 -147 60 -204 82 -299 117 -103 37 -218 76 -241 82 -55 14 -71 20 -80 25 -5
3 -14 6 -20 6 -5 1 -17 4 -25 8 -8 3 -42 13 -75 22 -155 41 -212 56 -235 61
-14 3 -41 9 -60 14 -19 5 -46 11 -60 14 -14 3 -36 7 -50 10 -14 3 -36 8 -50
11 -14 3 -36 8 -50 11 -26 5 -49 9 -115 18 -22 2 -56 8 -75 11 -36 6 -76 11
-165 20 -27 3 -63 8 -80 11 -34 6 -630 15 -636 10z"/>
</g>
</svg>
