<svg xmlns="http://www.w3.org/2000/svg" width="146.292" height="143.959" viewBox="0 0 146.292 143.959"><defs><style>.a{fill:#133c55;}.b{fill:#fff;}</style></defs><g transform="translate(0)"><path class="a" d="M118.846,97.71a8.282,8.282,0,0,1,1.16-4.222,11.644,11.644,0,0,1,.738-1.073,55.444,55.444,0,0,0,9.706-31.249C130.556,29.26,103.2,3.375,69.367,3.375c-29.5,0-54.121,19.76-59.888,45.991A54.761,54.761,0,0,0,8.177,61.2c0,31.941,26.3,58.518,60.134,58.518,5.38,0,12.625-1.592,16.6-2.665s7.912-2.492,8.932-2.872a9.431,9.431,0,0,1,3.27-.588,9.271,9.271,0,0,1,3.552.692l19.939,6.956a4.816,4.816,0,0,0,1.371.346,2.777,2.777,0,0,0,2.813-2.768,4.383,4.383,0,0,0-.176-.934Z" transform="translate(15.841 -3.375)"/><path class="a" d="M98.5,85.228c-1.266.346-2.884.727-4.642,1.107A65.9,65.9,0,0,1,81.9,87.893c-33.83,0-60.134-26.577-60.134-58.518a64.4,64.4,0,0,1,.527-7.406c.211-1.488.457-2.976.809-4.43.352-1.557.774-3.115,1.231-4.637l-2.813,2.457A51.161,51.161,0,0,0,3.375,54.083,50.349,50.349,0,0,0,12.1,82.46c.809,1.211,1.266,2.146,1.125,2.768s-4.185,21.455-4.185,21.455a2.751,2.751,0,0,0,.949,2.665,2.894,2.894,0,0,0,1.793.623,2.558,2.558,0,0,0,1.02-.208l19.728-7.648a5.572,5.572,0,0,1,2-.381,5.63,5.63,0,0,1,2.215.45,60.022,60.022,0,0,0,21.346,4.153A55.608,55.608,0,0,0,100.328,87.27s1.125-1.523,2.426-3.322C101.454,84.4,99.977,84.847,98.5,85.228Z" transform="translate(-3.375 33.988)"/></g><path class="b" d="M.528,42.333a11.492,11.492,0,0,0,11.456,9.9,11.492,11.492,0,0,0,11.456-9.9ZM62.951,65.221a1.746,1.746,0,0,1-.521,1.247,1.8,1.8,0,0,1-1.265.519H27.784a1.758,1.758,0,1,1,0-3.515H61.163A1.767,1.767,0,0,1,62.951,65.221ZM26.19,67.887H62.758V72.97H26.19ZM66.025,42.333a11.573,11.573,0,0,0,22.9,0ZM88.3,38.8,78.919,26.079h5.015a2.19,2.19,0,1,0,0-4.381H57.367a13.1,13.1,0,0,0-10.081-8.332V6.5a2.2,2.2,0,0,0-2.228-2.194l-.208.023-.208-.023a2.237,2.237,0,0,0-1.576.641A2.166,2.166,0,0,0,42.419,6.5v6.858a13.094,13.094,0,0,0-10.077,8.332H5.769a2.19,2.19,0,1,0,0,4.381h4.786L1.172,38.792H0v2.349H23.973V38.792H22.8L13.416,26.079H35.19a9.137,9.137,0,0,1,.131-1.451,2.04,2.04,0,0,0,.129-.674,9.435,9.435,0,0,1,6.969-6.925V41.146h-.093A26.5,26.5,0,0,1,31.243,62.574H58.465A26.536,26.536,0,0,1,47.373,41.146h-.086V17.029a9.433,9.433,0,0,1,6.968,6.925,2.194,2.194,0,0,0,.134.674,9.608,9.608,0,0,1,.116,1.451H76.052L66.669,38.8H65.5v2.349H89.465V38.8Zm-77.269,0H3.543l7.488-10.151V38.8Zm1.916,0V28.644L20.436,38.8H12.947Zm63.577,0H69.033l7.492-10.151Zm1.907,0V28.644l7.5,10.151ZM14.209,18.638a2.223,2.223,0,1,1-2.219-2.194,2.208,2.208,0,0,1,2.219,2.194Zm65.5-.116A2.195,2.195,0,0,1,77.482,20.7a2.226,2.226,0,0,1-1.574-.634,2.155,2.155,0,0,1-.649-1.547,2.18,2.18,0,0,1,1.085-1.968,2.255,2.255,0,0,1,2.275,0A2.18,2.18,0,0,1,79.7,18.522Z" transform="translate(42.744 17.646)"/></svg>