<svg xmlns="http://www.w3.org/2000/svg" width="155.702" height="186.649" viewBox="0 0 155.702 186.649"><defs><style>.a{fill:#133c55;}.b{fill:#fff;}</style></defs><g transform="translate(-523.814 -2453.778)"><path class="a" d="M28.309,0h83.366c9.131,0,4.712,28.756,10.137,35.681,3.439,4.382,33.89,3.655,33.89,10.055V158.791a28.087,28.087,0,0,1-28.309,27.858H28.309A28.087,28.087,0,0,1,0,158.791V27.858A28.087,28.087,0,0,1,28.309,0Z" transform="translate(523.814 2453.778)"/><path class="b" d="M52.846,21.074a9.219,9.219,0,0,0,.629-3.347,9.365,9.365,0,0,0-9.437-9.286A9.5,9.5,0,0,0,38.8,10.008,15.761,15.761,0,0,0,25.165,2.25,15.6,15.6,0,0,0,9.437,17.727c0,.261.01.522.02.784a13.9,13.9,0,0,0,4.7,27.075H50.329a12.365,12.365,0,0,0,2.516-24.512Zm-13.064,8.58L29.421,39.85a1.6,1.6,0,0,1-2.222,0l-10.361-10.2a1.544,1.544,0,0,1,1.111-2.641h6.429V16.179a1.565,1.565,0,0,1,1.573-1.548h4.718a1.565,1.565,0,0,1,1.573,1.548V27.013h6.429A1.544,1.544,0,0,1,39.782,29.654Z" transform="translate(570.209 2558.008)"/></g></svg>