<svg xmlns="http://www.w3.org/2000/svg" width="177.768" height="122.454" viewBox="0 0 177.768 122.454"><defs><style>.a{fill:#133c55;}</style></defs><path class="a" d="M149.325,55.441a26.049,26.049,0,0,0,1.778-9.457,26.462,26.462,0,0,0-26.665-26.24,26.834,26.834,0,0,0-14.8,4.428A44.537,44.537,0,0,0,71.107,2.25c-24.554,0-44.442,19.571-44.442,43.733,0,.738.028,1.476.056,2.214A39.436,39.436,0,0,0,0,85.344c0,21.73,17.916,39.36,40,39.36H142.214c19.638,0,35.554-15.662,35.554-34.987A35.131,35.131,0,0,0,149.325,55.441ZM112.41,79.686,83.134,108.495a4.511,4.511,0,0,1-6.277,0L47.581,79.686a4.363,4.363,0,0,1,3.139-7.462H68.885V41.61a4.422,4.422,0,0,1,4.444-4.373H86.662a4.422,4.422,0,0,1,4.444,4.373V72.224h18.166A4.363,4.363,0,0,1,112.41,79.686Z" transform="translate(0 -2.25)"/></svg>