<svg xmlns="http://www.w3.org/2000/svg" width="146.237" height="143.93" viewBox="0 0 146.237 143.93"><defs><style>.a{fill:#133c55;}</style></defs><path class="a" d="M144.248,124.436,115.77,96.412a6.907,6.907,0,0,0-4.856-1.968h-4.656a57.592,57.592,0,0,0,12.568-35.979C118.826,26.169,92.233,0,59.413,0S0,26.169,0,58.466s26.593,58.466,59.413,58.466a59.734,59.734,0,0,0,36.562-12.368v4.582a6.687,6.687,0,0,0,2,4.778l28.478,28.024a6.905,6.905,0,0,0,9.683,0l8.084-7.955A6.7,6.7,0,0,0,144.248,124.436ZM59.413,94.445c-20.195,0-36.562-16.078-36.562-35.979,0-19.873,16.339-35.979,36.562-35.979,20.195,0,36.562,16.078,36.562,35.979C95.975,78.338,79.636,94.445,59.413,94.445Z"/></svg>