<svg xmlns="http://www.w3.org/2000/svg" width="280.277" height="62.73" viewBox="0 0 280.277 62.73"><defs><style>.a,.b{fill:#fff;}.a{stroke:rgba(0,0,0,0);stroke-miterlimit:10;}.c{fill:#a5c548;}.d{fill:#2aa555;}</style></defs><g transform="translate(0 0)"><g transform="translate(0 0)"><path class="a" d="M35.116,39.11h0L24,38.788l-2.4-10.9-12.987-.06L5.142,38.7,0,38.944,13.172.084,21.541,0,35.115,39.108ZM15.838,8.843l-5.139,14,10.182.06Z" transform="translate(118.351 3.741)"/><g transform="translate(0 47.008)"><path class="b" d="M298.716,535.215a11.559,11.559,0,0,1-2.488.554,5.979,5.979,0,0,0-1.327.293,1.308,1.308,0,0,0-.6.474,1.2,1.2,0,0,0-.215.7,1.231,1.231,0,0,0,.461.976,2.043,2.043,0,0,0,1.344.391,3.2,3.2,0,0,0,1.561-.372,2.3,2.3,0,0,0,1.005-1.012,3.438,3.438,0,0,0,.244-1.466l.012-.537m.117,3.268a5.647,5.647,0,0,1-1.625.985,4.746,4.746,0,0,1-1.678.288,3.321,3.321,0,0,1-2.269-.7,2.257,2.257,0,0,1-.8-1.781,2.351,2.351,0,0,1,.3-1.166,2.456,2.456,0,0,1,.783-.844,3.844,3.844,0,0,1,1.1-.481,11.351,11.351,0,0,1,1.352-.221,14.321,14.321,0,0,0,2.708-.506c.007-.2.012-.33.012-.384a1.582,1.582,0,0,0-.434-1.262,2.584,2.584,0,0,0-1.732-.5,2.721,2.721,0,0,0-1.581.366,2.2,2.2,0,0,0-.758,1.293l-1.483-.2a3.52,3.52,0,0,1,.666-1.5A2.971,2.971,0,0,1,294.74,531a6.086,6.086,0,0,1,2.034-.31,5.562,5.562,0,0,1,1.868.263,2.478,2.478,0,0,1,1.056.659,2.345,2.345,0,0,1,.476,1.006,8.37,8.37,0,0,1,.073,1.357v1.954a21.117,21.117,0,0,0,.1,2.6,3.26,3.26,0,0,0,.373,1.05h-1.59A3.245,3.245,0,0,1,298.833,538.484Zm-8.626-2.095,1.485.2a3.583,3.583,0,0,1-3.72,3.167,3.885,3.885,0,0,1-2.944-1.162,4.641,4.641,0,0,1-1.117-3.337,5.867,5.867,0,0,1,.481-2.463,3.27,3.27,0,0,1,1.459-1.578,4.432,4.432,0,0,1,2.134-.528,3.782,3.782,0,0,1,2.381.715,3.265,3.265,0,0,1,1.188,2.036l-1.469.216a2.341,2.341,0,0,0-.747-1.318,1.975,1.975,0,0,0-1.293-.442,2.4,2.4,0,0,0-1.866.8,3.72,3.72,0,0,0-.715,2.523,3.839,3.839,0,0,0,.688,2.543,2.288,2.288,0,0,0,1.8.795,2.174,2.174,0,0,0,1.493-.531A2.608,2.608,0,0,0,290.208,536.389Zm-8.163,3.184h-1.517v-8.7h1.517Zm0-10.325h-1.517v-1.677h1.517ZM271.9,535.077a3.672,3.672,0,0,0,.7,2.487,2.257,2.257,0,0,0,1.754.787,2.282,2.282,0,0,0,1.757-.781,3.568,3.568,0,0,0,.707-2.446,3.5,3.5,0,0,0-.729-2.4,2.281,2.281,0,0,0-1.756-.809,2.221,2.221,0,0,0-1.723.8A3.458,3.458,0,0,0,271.9,535.077Zm-1.244,5.219,1.469.2a1.344,1.344,0,0,0,.515.966,2.6,2.6,0,0,0,1.544.408,2.8,2.8,0,0,0,1.625-.408,1.978,1.978,0,0,0,.776-1.144,9.169,9.169,0,0,0,.112-1.885,3.155,3.155,0,0,1-2.479,1.139,3.417,3.417,0,0,1-2.859-1.294,4.865,4.865,0,0,1-1.014-3.1,5.636,5.636,0,0,1,.466-2.3,3.626,3.626,0,0,1,1.342-1.623,3.723,3.723,0,0,1,2.071-.572,3.225,3.225,0,0,1,2.61,1.259v-1.074h1.4v7.511a6.922,6.922,0,0,1-.424,2.88,3.073,3.073,0,0,1-1.346,1.34,4.8,4.8,0,0,1-2.268.489,4.347,4.347,0,0,1-2.579-.7A2.323,2.323,0,0,1,270.653,540.3Zm-6.9-10.494,1.1-2.3h2l-1.844,2.3Zm-1.278,4.592h4.986a2.879,2.879,0,0,0-.571-1.645,2.345,2.345,0,0,0-1.878-.852,2.449,2.449,0,0,0-1.752.678A2.689,2.689,0,0,0,262.476,534.394Zm4.969,2.364,1.571.2a3.713,3.713,0,0,1-1.368,2.064,4.241,4.241,0,0,1-2.559.732,4.148,4.148,0,0,1-3.105-1.173,4.5,4.5,0,0,1-1.147-3.289A4.7,4.7,0,0,1,262,531.9a3.98,3.98,0,0,1,3.01-1.21,3.87,3.87,0,0,1,2.922,1.184,4.635,4.635,0,0,1,1.137,3.336c0,.086,0,.22-.01.391h-6.665a3.271,3.271,0,0,0,.835,2.193,2.507,2.507,0,0,0,1.861.76,2.357,2.357,0,0,0,1.422-.428A2.835,2.835,0,0,0,267.445,536.759Zm-7.6,1.5.207,1.3a5.859,5.859,0,0,1-1.141.131,2.674,2.674,0,0,1-1.281-.253,1.425,1.425,0,0,1-.639-.669,5.134,5.134,0,0,1-.186-1.743v-5.013h-1.117v-1.14H256.8v-2.151l1.52-.886v3.037h1.52v1.14h-1.52v5.1a2.477,2.477,0,0,0,.081.814.649.649,0,0,0,.259.288,1.058,1.058,0,0,0,.517.106A4.889,4.889,0,0,0,259.841,538.258Zm-7.162-3.043a11.466,11.466,0,0,1-2.486.554,6.01,6.01,0,0,0-1.33.293,1.314,1.314,0,0,0-.595.474,1.255,1.255,0,0,0,.246,1.674,2.05,2.05,0,0,0,1.346.391,3.194,3.194,0,0,0,1.559-.372,2.326,2.326,0,0,0,1.005-1.012,3.436,3.436,0,0,0,.244-1.466Zm.119,3.268a5.636,5.636,0,0,1-1.627.985,4.751,4.751,0,0,1-1.678.288,3.327,3.327,0,0,1-2.269-.7,2.26,2.26,0,0,1-.79-1.781,2.349,2.349,0,0,1,.3-1.166,2.492,2.492,0,0,1,.786-.844,3.765,3.765,0,0,1,1.093-.481,11.339,11.339,0,0,1,1.351-.221,14.286,14.286,0,0,0,2.708-.506c.007-.2.01-.33.01-.384a1.59,1.59,0,0,0-.432-1.262,2.591,2.591,0,0,0-1.732-.5,2.745,2.745,0,0,0-1.583.366,2.227,2.227,0,0,0-.756,1.293l-1.483-.2a3.5,3.5,0,0,1,.669-1.5,2.934,2.934,0,0,1,1.344-.875,6.1,6.1,0,0,1,2.037-.31,5.6,5.6,0,0,1,1.868.263,2.5,2.5,0,0,1,1.054.659,2.343,2.343,0,0,1,.473,1.006,8.3,8.3,0,0,1,.075,1.357v1.954a20.634,20.634,0,0,0,.1,2.6,3.315,3.315,0,0,0,.371,1.05h-1.589A3.133,3.133,0,0,1,252.8,538.484Zm-11.609,1.089v-8.7h1.361v1.335a3.577,3.577,0,0,1,.966-1.222,1.713,1.713,0,0,1,.976-.3,3.074,3.074,0,0,1,1.561.467l-.542,1.362a2.265,2.265,0,0,0-1.1-.3,1.456,1.456,0,0,0-.888.29,1.557,1.557,0,0,0-.561.806,5.486,5.486,0,0,0-.254,1.716v4.545Zm-1.483-1.315.21,1.3a5.839,5.839,0,0,1-1.142.131,2.667,2.667,0,0,1-1.281-.253,1.423,1.423,0,0,1-.637-.669,5.148,5.148,0,0,1-.185-1.743v-5.013h-1.122v-1.14h1.122v-2.151l1.52-.886v3.037h1.515v1.14h-1.515v5.1a2.424,2.424,0,0,0,.08.814.611.611,0,0,0,.259.288,1.054,1.054,0,0,0,.517.106A4.79,4.79,0,0,0,239.706,538.258Zm-12.522-1.281,1.5-.237a2.027,2.027,0,0,0,.7,1.345,2.528,2.528,0,0,0,1.617.467,2.408,2.408,0,0,0,1.554-.416,1.214,1.214,0,0,0,.507-.968.9.9,0,0,0-.454-.787,7.081,7.081,0,0,0-1.551-.5,14.448,14.448,0,0,1-2.31-.7,2.221,2.221,0,0,1-.974-.828,2.1,2.1,0,0,1-.332-1.161,2.17,2.17,0,0,1,.271-1.076,2.4,2.4,0,0,1,.744-.821,3.231,3.231,0,0,1,.966-.429,4.67,4.67,0,0,1,1.305-.176,5.222,5.222,0,0,1,1.847.3,2.486,2.486,0,0,1,1.176.8,3.132,3.132,0,0,1,.52,1.353l-1.483.2a1.58,1.58,0,0,0-.583-1.062,2.159,2.159,0,0,0-1.366-.381,2.524,2.524,0,0,0-1.486.336.969.969,0,0,0-.446.784.786.786,0,0,0,.185.517,1.307,1.307,0,0,0,.578.39c.154.056.6.182,1.339.379a19.772,19.772,0,0,1,2.24.681,2.261,2.261,0,0,1,1,.772,2.081,2.081,0,0,1,.363,1.262,2.416,2.416,0,0,1-.441,1.381,2.838,2.838,0,0,1-1.276,1,4.746,4.746,0,0,1-1.888.354,4.307,4.307,0,0,1-2.659-.7A3.237,3.237,0,0,1,227.184,536.977Zm-10.68,2.6v-12h8.919v1.409h-7.279v3.688h6.816v1.408h-6.816v4.091h7.575v1.406Zm-14.246-2.6,1.5-.237a2.021,2.021,0,0,0,.7,1.345,2.51,2.51,0,0,0,1.613.467,2.419,2.419,0,0,0,1.556-.416,1.22,1.22,0,0,0,.508-.968.9.9,0,0,0-.454-.787,7.132,7.132,0,0,0-1.552-.5,14.575,14.575,0,0,1-2.312-.7,2.2,2.2,0,0,1-.971-.828,2.106,2.106,0,0,1-.337-1.161,2.193,2.193,0,0,1,.273-1.076,2.411,2.411,0,0,1,.747-.821,3.264,3.264,0,0,1,.961-.429,4.714,4.714,0,0,1,1.308-.176,5.245,5.245,0,0,1,1.849.3,2.5,2.5,0,0,1,1.176.8,3.106,3.106,0,0,1,.517,1.353l-1.484.2a1.568,1.568,0,0,0-.583-1.062,2.146,2.146,0,0,0-1.364-.381,2.533,2.533,0,0,0-1.488.336.971.971,0,0,0-.447.784.8.8,0,0,0,.186.517,1.337,1.337,0,0,0,.578.39c.154.056.6.182,1.342.379a19.773,19.773,0,0,1,2.24.681,2.268,2.268,0,0,1,1,.772,2.082,2.082,0,0,1,.366,1.262,2.413,2.413,0,0,1-.442,1.381,2.862,2.862,0,0,1-1.276,1,4.762,4.762,0,0,1-1.889.354,4.31,4.31,0,0,1-2.661-.7A3.245,3.245,0,0,1,202.258,536.977Zm-7.852-2.583h4.986a2.9,2.9,0,0,0-.573-1.645,2.335,2.335,0,0,0-1.873-.852,2.431,2.431,0,0,0-1.752.678A2.668,2.668,0,0,0,194.405,534.394Zm4.969,2.364,1.571.2a3.7,3.7,0,0,1-1.368,2.064,4.237,4.237,0,0,1-2.559.732,4.147,4.147,0,0,1-3.1-1.173,4.489,4.489,0,0,1-1.146-3.289,4.718,4.718,0,0,1,1.156-3.4,3.984,3.984,0,0,1,3.01-1.21,3.879,3.879,0,0,1,2.928,1.184,4.644,4.644,0,0,1,1.132,3.336c0,.086,0,.22,0,.391h-6.67a3.282,3.282,0,0,0,.835,2.193,2.516,2.516,0,0,0,1.863.76,2.364,2.364,0,0,0,1.422-.428A2.84,2.84,0,0,0,199.374,536.759Zm-8.455,2.815H189.4v-12h1.517Zm-5.352-4.358a11.432,11.432,0,0,1-2.483.554,5.946,5.946,0,0,0-1.327.293,1.3,1.3,0,0,0-.6.474,1.2,1.2,0,0,0-.215.7,1.231,1.231,0,0,0,.461.976,2.038,2.038,0,0,0,1.344.391,3.2,3.2,0,0,0,1.561-.372,2.316,2.316,0,0,0,1.006-1.012,3.444,3.444,0,0,0,.244-1.466Zm.122,3.268a5.668,5.668,0,0,1-1.627.985,4.754,4.754,0,0,1-1.676.288,3.314,3.314,0,0,1-2.269-.7,2.256,2.256,0,0,1-.795-1.781,2.326,2.326,0,0,1,.3-1.166,2.456,2.456,0,0,1,.783-.844,3.8,3.8,0,0,1,1.093-.481,11.44,11.44,0,0,1,1.352-.221,14.315,14.315,0,0,0,2.71-.506c0-.2.007-.33.007-.384a1.574,1.574,0,0,0-.432-1.262,2.586,2.586,0,0,0-1.729-.5,2.75,2.75,0,0,0-1.586.366,2.213,2.213,0,0,0-.754,1.293l-1.485-.2a3.522,3.522,0,0,1,.668-1.5,2.949,2.949,0,0,1,1.344-.875,6.115,6.115,0,0,1,2.037-.31,5.584,5.584,0,0,1,1.868.263,2.483,2.483,0,0,1,1.054.659,2.32,2.32,0,0,1,.478,1.006,8.982,8.982,0,0,1,.073,1.357v1.954a20.147,20.147,0,0,0,.1,2.6,3.259,3.259,0,0,0,.368,1.05h-1.585A3.188,3.188,0,0,1,185.689,538.484Zm-7.345-.226.207,1.3a5.883,5.883,0,0,1-1.144.131,2.671,2.671,0,0,1-1.28-.253,1.413,1.413,0,0,1-.634-.669,5.068,5.068,0,0,1-.186-1.743v-5.013h-1.122v-1.14h1.122v-2.151l1.517-.886v3.037h1.52v1.14h-1.52v5.1a2.409,2.409,0,0,0,.081.814.614.614,0,0,0,.261.288,1.046,1.046,0,0,0,.517.106A4.891,4.891,0,0,0,178.344,538.258Zm-12.89,1.315v-8.7h1.361v1.236a3.245,3.245,0,0,1,2.842-1.421,3.831,3.831,0,0,1,1.488.283,2.32,2.32,0,0,1,1.015.739,2.823,2.823,0,0,1,.473,1.087,8.55,8.55,0,0,1,.083,1.433v5.342H171.2v-5.286a3.9,3.9,0,0,0-.173-1.346,1.428,1.428,0,0,0-.629-.711,2.036,2.036,0,0,0-1.053-.265,2.485,2.485,0,0,0-1.669.6,2.9,2.9,0,0,0-.7,2.266v4.745ZM157,534.394h4.987a2.882,2.882,0,0,0-.574-1.645,2.338,2.338,0,0,0-1.873-.852,2.446,2.446,0,0,0-1.754.678A2.677,2.677,0,0,0,157,534.394Zm4.972,2.364,1.566.2a3.7,3.7,0,0,1-1.366,2.064,4.238,4.238,0,0,1-2.557.732,4.14,4.14,0,0,1-3.105-1.173,4.5,4.5,0,0,1-1.149-3.289,4.708,4.708,0,0,1,1.159-3.4,3.987,3.987,0,0,1,3.013-1.21,3.876,3.876,0,0,1,2.923,1.184,4.637,4.637,0,0,1,1.137,3.336c0,.086,0,.22-.01.391h-6.667a3.281,3.281,0,0,0,.834,2.193,2.515,2.515,0,0,0,1.866.76,2.36,2.36,0,0,0,1.42-.428A2.857,2.857,0,0,0,161.968,536.759Zm-8.426,2.815h-1.517v-8.7h1.517Zm0-10.325h-1.517v-1.677h1.517Zm-9.731,5.911a4.379,4.379,0,0,0,.437,2.254,2.2,2.2,0,0,0,3.654.3,4.786,4.786,0,0,0,.029-5.008,2.136,2.136,0,0,0-1.678-.81,2.192,2.192,0,0,0-1.718.838A3.609,3.609,0,0,0,143.811,535.16Zm.017,4.413h-1.415v-12h1.517v4.283a3.047,3.047,0,0,1,2.454-1.165,3.883,3.883,0,0,1,1.564.322,3.208,3.208,0,0,1,1.212.91,4.315,4.315,0,0,1,.747,1.412,5.587,5.587,0,0,1,.268,1.76,4.89,4.89,0,0,1-1.132,3.448,3.6,3.6,0,0,1-2.733,1.217,2.874,2.874,0,0,1-2.483-1.278Zm-15.769,0v-8.7h1.364V532.1a3.1,3.1,0,0,1,1.119-1.025,3.21,3.21,0,0,1,1.588-.389,3.007,3.007,0,0,1,1.627.4,2.136,2.136,0,0,1,.9,1.121,3.251,3.251,0,0,1,2.774-1.522,2.794,2.794,0,0,1,2.059.715,3,3,0,0,1,.717,2.205v5.964h-1.515V534.1a3.91,3.91,0,0,0-.149-1.271A1.235,1.235,0,0,0,138,532.2a1.707,1.707,0,0,0-.91-.237,2.169,2.169,0,0,0-1.576.608,2.644,2.644,0,0,0-.624,1.954v5.047h-1.515v-5.647a2.407,2.407,0,0,0-.373-1.469,1.419,1.419,0,0,0-1.21-.492,2.248,2.248,0,0,0-1.185.327,1.868,1.868,0,0,0-.785.957,5.227,5.227,0,0,0-.244,1.816v4.509Zm-9.116-4.927h4.208l-1.288-3.328c-.385-1.009-.683-1.846-.883-2.5a16.762,16.762,0,0,1-.683,2.312Zm-3.555,4.927,4.737-12h1.8l5.03,12h-1.861l-1.43-3.635h-5.2l-1.341,3.635Zm-11.9-2.6,1.5-.237a2.029,2.029,0,0,0,.7,1.345,2.512,2.512,0,0,0,1.615.467,2.423,2.423,0,0,0,1.556-.416,1.217,1.217,0,0,0,.505-.968.9.9,0,0,0-.454-.787,7.066,7.066,0,0,0-1.551-.5,14.531,14.531,0,0,1-2.31-.7,2.243,2.243,0,0,1-.976-.828,2.143,2.143,0,0,1-.332-1.161,2.193,2.193,0,0,1,.273-1.076,2.423,2.423,0,0,1,.744-.821,3.252,3.252,0,0,1,.964-.429,4.7,4.7,0,0,1,1.308-.176,5.2,5.2,0,0,1,1.844.3,2.476,2.476,0,0,1,1.176.8,3.1,3.1,0,0,1,.522,1.353l-1.483.2a1.578,1.578,0,0,0-.583-1.062,2.165,2.165,0,0,0-1.368-.381,2.527,2.527,0,0,0-1.484.336.97.97,0,0,0-.446.784.811.811,0,0,0,.183.517,1.343,1.343,0,0,0,.581.39c.154.056.595.182,1.337.379a20.114,20.114,0,0,1,2.245.681,2.284,2.284,0,0,1,1,.772,2.1,2.1,0,0,1,.363,1.262,2.4,2.4,0,0,1-.442,1.381,2.855,2.855,0,0,1-1.278,1,4.742,4.742,0,0,1-1.888.354,4.311,4.311,0,0,1-2.659-.7A3.232,3.232,0,0,1,103.484,536.977Zm-7.853-2.583h4.984a2.882,2.882,0,0,0-.571-1.645,2.34,2.34,0,0,0-1.873-.852,2.452,2.452,0,0,0-1.757.678A2.676,2.676,0,0,0,95.632,534.394Zm4.969,2.364,1.568.2a3.711,3.711,0,0,1-1.369,2.064,4.238,4.238,0,0,1-2.557.732,4.136,4.136,0,0,1-3.1-1.173A4.493,4.493,0,0,1,93.99,535.3a4.707,4.707,0,0,1,1.162-3.4,3.98,3.98,0,0,1,3.01-1.21,3.871,3.871,0,0,1,2.923,1.184,4.626,4.626,0,0,1,1.137,3.336c0,.086,0,.22-.01.391H95.546a3.272,3.272,0,0,0,.834,2.193,2.513,2.513,0,0,0,1.864.76,2.357,2.357,0,0,0,1.42-.428A2.827,2.827,0,0,0,100.6,536.759Zm-15.7,2.815v-8.7h1.364v1.236a3.239,3.239,0,0,1,2.844-1.421,3.823,3.823,0,0,1,1.483.283,2.28,2.28,0,0,1,1.015.739,2.811,2.811,0,0,1,.473,1.087,8.547,8.547,0,0,1,.083,1.433v5.342H90.643v-5.286a3.9,3.9,0,0,0-.175-1.346,1.426,1.426,0,0,0-.63-.711,2.037,2.037,0,0,0-1.054-.265,2.483,2.483,0,0,0-1.668.6,2.9,2.9,0,0,0-.7,2.266v4.745Zm-8.609-4.346a3.622,3.622,0,0,0,.747,2.494,2.465,2.465,0,0,0,1.9.832,2.44,2.44,0,0,0,1.883-.834,3.711,3.711,0,0,0,.749-2.539,3.489,3.489,0,0,0-.756-2.437,2.433,2.433,0,0,0-1.876-.831,2.474,2.474,0,0,0-1.9.824A3.616,3.616,0,0,0,76.289,535.227Zm-1.556,0a4.4,4.4,0,0,1,1.385-3.572,4.237,4.237,0,0,1,2.815-.964,4.093,4.093,0,0,1,3.015,1.175,4.382,4.382,0,0,1,1.168,3.237,5.617,5.617,0,0,1-.517,2.636,3.613,3.613,0,0,1-1.51,1.492,4.49,4.49,0,0,1-2.156.528,4.078,4.078,0,0,1-3.039-1.168A4.559,4.559,0,0,1,74.733,535.225Zm-1.742,4.348H71.474v-8.7h1.517Zm0-10.325H71.474v-1.677h1.517Zm-4.3,7.14,1.483.2a3.582,3.582,0,0,1-3.718,3.167,3.887,3.887,0,0,1-2.947-1.162,4.63,4.63,0,0,1-1.115-3.337,5.867,5.867,0,0,1,.481-2.463,3.249,3.249,0,0,1,1.459-1.578,4.436,4.436,0,0,1,2.135-.528,3.781,3.781,0,0,1,2.381.715,3.285,3.285,0,0,1,1.188,2.036l-1.469.216a2.339,2.339,0,0,0-.747-1.318,1.975,1.975,0,0,0-1.293-.442,2.408,2.408,0,0,0-1.869.8,3.721,3.721,0,0,0-.712,2.523,3.837,3.837,0,0,0,.688,2.543,2.285,2.285,0,0,0,1.805.795,2.162,2.162,0,0,0,1.49-.531A2.6,2.6,0,0,0,68.693,536.389ZM59.1,539.573V538.28a3.278,3.278,0,0,1-2.832,1.477,3.674,3.674,0,0,1-1.473-.293,2.42,2.42,0,0,1-1.02-.739,2.757,2.757,0,0,1-.463-1.091,7.393,7.393,0,0,1-.093-1.377v-5.383h1.517v4.816a8.449,8.449,0,0,0,.09,1.55,1.521,1.521,0,0,0,.608.912,1.911,1.911,0,0,0,1.144.331,2.54,2.54,0,0,0,1.273-.336,1.92,1.92,0,0,0,.847-.927,4.544,4.544,0,0,0,.249-1.694v-4.653H60.46v8.7Zm-8.2,0H49.382v-12H50.9Zm-10.094-4.346a3.608,3.608,0,0,0,.751,2.494,2.559,2.559,0,0,0,3.779,0,3.7,3.7,0,0,0,.749-2.539,3.514,3.514,0,0,0-.754-2.437,2.565,2.565,0,0,0-3.774-.007A3.6,3.6,0,0,0,40.805,535.227Zm-1.551,0a4.4,4.4,0,0,1,1.383-3.572,4.241,4.241,0,0,1,2.815-.964,4.087,4.087,0,0,1,3.015,1.175,4.384,4.384,0,0,1,1.171,3.237,5.585,5.585,0,0,1-.52,2.636,3.622,3.622,0,0,1-1.507,1.492,4.494,4.494,0,0,1-2.159.528,4.087,4.087,0,0,1-3.042-1.168A4.577,4.577,0,0,1,39.254,535.225Zm-11.283.493,1.537-.132a3.273,3.273,0,0,0,.5,1.485,2.807,2.807,0,0,0,1.244.939,4.8,4.8,0,0,0,1.9.357,4.63,4.63,0,0,0,1.652-.27,2.3,2.3,0,0,0,1.064-.746,1.71,1.71,0,0,0,.352-1.03,1.534,1.534,0,0,0-.337-.98,2.523,2.523,0,0,0-1.112-.708c-.334-.122-1.066-.317-2.2-.585a11.507,11.507,0,0,1-2.386-.748,3.278,3.278,0,0,1-1.31-1.121,2.654,2.654,0,0,1-.437-1.494,3,3,0,0,1,.532-1.7,3.271,3.271,0,0,1,1.552-1.2,6.007,6.007,0,0,1,2.264-.411,6.311,6.311,0,0,1,2.42.431,3.443,3.443,0,0,1,1.615,1.265,3.6,3.6,0,0,1,.608,1.891l-1.571.119A2.424,2.424,0,0,0,35,529.359a3.39,3.39,0,0,0-2.152-.58,3.525,3.525,0,0,0-2.161.528,1.572,1.572,0,0,0-.678,1.273,1.355,1.355,0,0,0,.478,1.065,6.672,6.672,0,0,0,2.466.854,17.085,17.085,0,0,1,2.732.765,3.705,3.705,0,0,1,1.588,1.222,2.878,2.878,0,0,1,.518,1.7,3.185,3.185,0,0,1-.566,1.8A3.658,3.658,0,0,1,35.6,539.3a5.739,5.739,0,0,1-2.376.469,7.31,7.31,0,0,1-2.806-.474,3.84,3.84,0,0,1-1.771-1.428A3.915,3.915,0,0,1,27.971,535.718Z" transform="translate(-27.971 -527.37)"/><path class="b" d="M693.854,541.893l1.5-.237a2.018,2.018,0,0,0,.7,1.346,2.51,2.51,0,0,0,1.613.467,2.44,2.44,0,0,0,1.556-.413,1.226,1.226,0,0,0,.507-.971.883.883,0,0,0-.454-.785,7,7,0,0,0-1.554-.5,14.712,14.712,0,0,1-2.31-.706,2.238,2.238,0,0,1-.971-.826,2.111,2.111,0,0,1-.336-1.163,2.179,2.179,0,0,1,.275-1.076,2.4,2.4,0,0,1,.744-.821,3.2,3.2,0,0,1,.964-.427,4.723,4.723,0,0,1,1.3-.175,5.3,5.3,0,0,1,1.849.3,2.528,2.528,0,0,1,1.176.8,3.144,3.144,0,0,1,.52,1.353l-1.486.2a1.579,1.579,0,0,0-.581-1.062,2.158,2.158,0,0,0-1.366-.378,2.54,2.54,0,0,0-1.488.333.975.975,0,0,0-.446.788.806.806,0,0,0,.185.516,1.377,1.377,0,0,0,.578.391c.156.057.6.182,1.342.376a19.462,19.462,0,0,1,2.242.683,2.267,2.267,0,0,1,1,.769,2.083,2.083,0,0,1,.366,1.261,2.408,2.408,0,0,1-.441,1.381,2.872,2.872,0,0,1-1.276,1.007,4.824,4.824,0,0,1-1.888.354,4.332,4.332,0,0,1-2.662-.7,3.258,3.258,0,0,1-1.168-2.082" transform="translate(-421.012 -532.286)"/></g><path class="b" d="M245.7,422.259l9.723-.155.212,32.972,11.273-.07-.3,4.858-21-.044.09-37.56" transform="translate(-156.434 -417.54)"/><path class="b" d="M51.9,429.159l2.11-5.221s-15.878-8.292-22.141,4.434c-1.678,3.414-3.1,9.993,4.974,14.321,2.94,1.576,12.754,2.43,9.506,8.992,0,0-4.056,7.158-14.859-1.223l-2.025,4.919s15.559,9.885,24.47-1.763c2.764-3.608,6.008-11.95-5.769-17-2.532-1.087-8.4-1.659-9.519-5.394,0,0-.622-10.15,13.251-2.062" transform="translate(-28.853 -417.051)"/><path class="b" d="M182.549,420.749s12.8,5.8,13.9,19c0,0-7.721-3.72-13.568-2.711l-.332-16.286" transform="translate(-119.212 -416.732)"/><path class="c" d="M119.584,483.91s9.331-28.756,41.705-12.94c0,0-11.1,33.452-41.705,12.94" transform="translate(-82.046 -443.869)"/><path class="d" d="M137.626,410.786l.6,20s-16.381-.8-24.851,17.332c0,0-12.224-28.8,24.248-37.332" transform="translate(-77.221 -410.786)"/><path class="b" d="M668.639,429.3l1.51-5.51s-16.632-6.3-21.541,4.71c-1.678,3.466-3.1,10.146,4.977,14.541,2.937,1.6,11.975,1.467,9.5,9.134,0,0-4.057,7.266-14.859-1.245l-2.025,5s12.635,9.924,24.47-1.791c3.681-3.644,4.164-11.677-5.77-17.263-2.534-1.1-9.562-2.867-9.518-5.478,0,0,.444-9.579,13.251-2.092" transform="translate(-392.887 -417.474)"/><path class="b" d="M561.046,418.883l22.6.243L583.1,424.1l-12.326-.2-.059,12.63,12.176.029-.01,3.817-11.576-.179-.345,13.677,11.755.446-.01,3.761-21.846-.359.186-38.838" transform="translate(-342.512 -415.618)"/></g><path class="b" d="M426.5,459.292l5.223-38.911,8.5.02,8.548,29.774,8.994-29.636,8.724.021,4.4,38.252-10.009.474-2.2-26.1-8.148,25.943-7.779-.01L434.6,433.4l-2.923,25.787-5.176.1" transform="translate(-263.207 -416.512)"/></g></svg>